<?xml version="1.0" encoding="UTF-8"?>
<!DOCTYPE svg PUBLIC "-//W3C//DTD SVG 1.1//EN" "http://www.w3.org/Graphics/SVG/1.1/DTD/svg11.dtd">
<svg xmlns="http://www.w3.org/2000/svg" version="1.1" width="1560px" height="1061px" style="shape-rendering:geometricPrecision; text-rendering:geometricPrecision; image-rendering:optimizeQuality; fill-rule:evenodd; clip-rule:evenodd" xmlns:xlink="http://www.w3.org/1999/xlink">
<g><path style="opacity:0.994" fill="#bed731" d="M 872.5,-0.5 C 879.5,-0.5 886.5,-0.5 893.5,-0.5C 899.405,2.46043 905.071,5.96043 910.5,10C 1115.17,165.667 1319.83,321.333 1524.5,477C 1530.19,481.508 1536.19,485.508 1542.5,489C 1550.91,497.321 1556.57,507.155 1559.5,518.5C 1559.5,524.5 1559.5,530.5 1559.5,536.5C 1556.37,549.804 1549.37,560.638 1538.5,569C 1324.65,731.091 1110.99,893.424 897.5,1056C 893.693,1057.43 890.026,1058.93 886.5,1060.5C 880.833,1060.5 875.167,1060.5 869.5,1060.5C 858.045,1058.18 849.545,1051.85 844,1041.5C 840.697,1032.1 839.697,1022.43 841,1012.5C 842.731,1008.71 844.731,1005.04 847,1001.5C 876.16,960.515 904.827,919.182 933,877.5C 1031.55,710.411 1055.55,533.078 1005,345.5C 987.789,288.085 963.789,233.752 933,182.5C 903.58,139.326 873.913,96.326 844,53.5C 839.229,46.0514 838.229,38.0514 841,29.5C 843.789,19.3804 849.623,11.5471 858.5,6C 863.137,3.51112 867.804,1.34445 872.5,-0.5 Z"/></g>
<g><path style="opacity:0.993" fill="#000000" d="M 403.5,34.5 C 483.721,29.979 560.388,44.1457 633.5,77C 697.038,107.204 746.538,152.704 782,213.5C 802.531,251.622 814.364,292.289 817.5,335.5C 756.167,335.5 694.833,335.5 633.5,335.5C 626.606,291.541 605.273,256.374 569.5,230C 514.75,191.921 454.416,179.254 388.5,192C 314.568,208.265 261.735,250.765 230,319.5C 206.761,373.021 194.761,429.021 194,487.5C 190.359,560.638 205.359,629.638 239,694.5C 287.737,779.131 361.237,818.631 459.5,813C 497.117,812.012 532.784,803.345 566.5,787C 612.624,759.662 639.458,719.162 647,665.5C 649.525,648.572 651.025,631.572 651.5,614.5C 585.833,614.5 520.167,614.5 454.5,614.5C 454.5,566.167 454.5,517.833 454.5,469.5C 577.167,469.5 699.833,469.5 822.5,469.5C 822.667,520.834 822.5,572.168 822,623.5C 821.307,675.992 812.307,726.992 795,776.5C 762.634,859.199 704.468,915.032 620.5,944C 559.874,963.35 497.708,972.517 434,971.5C 275.392,968.229 154.725,899.563 72,765.5C 17.3256,669.786 -6.00776,566.786 2,456.5C 6.42608,380.899 26.0927,309.565 61,242.5C 121.762,133.825 213.595,67.3247 336.5,43C 358.851,39.1023 381.184,36.269 403.5,34.5 Z"/></g>
</svg>
